<mxfile host="app.diagrams.net" modified="2024-03-05T21:23:32.696Z" agent="Mozilla/5.0 (Windows NT 10.0; Win64; x64) AppleWebKit/537.36 (KHTML, like Gecko) Chrome/122.0.0.0 Safari/537.36" etag="iVDcV_ja2pmgbKe30FuH" version="24.0.1" type="device">
  <diagram id="C5RBs43oDa-KdzZeNtuy" name="Page-1">
    <mxGraphModel dx="1356" dy="786" grid="1" gridSize="10" guides="1" tooltips="1" connect="1" arrows="1" fold="1" page="1" pageScale="1" pageWidth="827" pageHeight="1169" math="0" shadow="0">
      <root>
        <mxCell id="WIyWlLk6GJQsqaUBKTNV-0" />
        <mxCell id="WIyWlLk6GJQsqaUBKTNV-1" parent="WIyWlLk6GJQsqaUBKTNV-0" />
        <mxCell id="gTWxNoKjr0HvjYcYxz1J-58" style="edgeStyle=orthogonalEdgeStyle;rounded=0;orthogonalLoop=1;jettySize=auto;html=1;exitX=0.5;exitY=1;exitDx=0;exitDy=0;entryX=0.25;entryY=0;entryDx=0;entryDy=0;" edge="1" parent="WIyWlLk6GJQsqaUBKTNV-1" source="WIyWlLk6GJQsqaUBKTNV-3" target="gTWxNoKjr0HvjYcYxz1J-39">
          <mxGeometry relative="1" as="geometry" />
        </mxCell>
        <mxCell id="gTWxNoKjr0HvjYcYxz1J-76" value="Creates" style="edgeLabel;html=1;align=center;verticalAlign=middle;resizable=0;points=[];labelBackgroundColor=#FFFFFF;" vertex="1" connectable="0" parent="gTWxNoKjr0HvjYcYxz1J-58">
          <mxGeometry x="-0.0417" relative="1" as="geometry">
            <mxPoint as="offset" />
          </mxGeometry>
        </mxCell>
        <mxCell id="WIyWlLk6GJQsqaUBKTNV-3" value="Business Unit Request" style="rounded=1;whiteSpace=wrap;html=1;fontSize=12;glass=0;strokeWidth=1;shadow=0;fillColor=#d5e8d4;strokeColor=#82b366;" parent="WIyWlLk6GJQsqaUBKTNV-1" vertex="1">
          <mxGeometry x="200" width="120" height="40" as="geometry" />
        </mxCell>
        <mxCell id="WIyWlLk6GJQsqaUBKTNV-6" value="Panorama" style="rhombus;whiteSpace=wrap;html=1;shadow=0;fontFamily=Helvetica;fontSize=12;align=center;strokeWidth=1;spacing=6;spacingTop=-4;" parent="WIyWlLk6GJQsqaUBKTNV-1" vertex="1">
          <mxGeometry x="340" y="480" width="120" height="120" as="geometry" />
        </mxCell>
        <mxCell id="gTWxNoKjr0HvjYcYxz1J-62" style="rounded=0;orthogonalLoop=1;jettySize=auto;html=1;exitX=0.141;exitY=1.063;exitDx=0;exitDy=0;entryX=0.25;entryY=0;entryDx=0;entryDy=0;exitPerimeter=0;" edge="1" parent="WIyWlLk6GJQsqaUBKTNV-1" source="gTWxNoKjr0HvjYcYxz1J-39" target="gTWxNoKjr0HvjYcYxz1J-24">
          <mxGeometry relative="1" as="geometry">
            <mxPoint x="360" y="180" as="targetPoint" />
            <Array as="points">
              <mxPoint x="343" y="160" />
            </Array>
          </mxGeometry>
        </mxCell>
        <mxCell id="gTWxNoKjr0HvjYcYxz1J-77" value="IP-Address" style="edgeLabel;html=1;align=center;verticalAlign=middle;resizable=0;points=[];labelBackgroundColor=#FFFFFF;" vertex="1" connectable="0" parent="gTWxNoKjr0HvjYcYxz1J-62">
          <mxGeometry x="-0.0833" relative="1" as="geometry">
            <mxPoint as="offset" />
          </mxGeometry>
        </mxCell>
        <mxCell id="gTWxNoKjr0HvjYcYxz1J-39" value="" style="rounded=1;whiteSpace=wrap;html=1;fontSize=12;glass=0;strokeWidth=1;shadow=0;" vertex="1" parent="WIyWlLk6GJQsqaUBKTNV-1">
          <mxGeometry x="320" y="80" width="160" height="40" as="geometry" />
        </mxCell>
        <mxCell id="gTWxNoKjr0HvjYcYxz1J-63" value="        " style="group;shadow=1;textShadow=1;fillStyle=solid;fillColor=#808080;rounded=0;fontColor=#ffffff;strokeColor=#001DBC;" vertex="1" connectable="0" parent="WIyWlLk6GJQsqaUBKTNV-1">
          <mxGeometry x="320" y="200" width="160" height="160" as="geometry" />
        </mxCell>
        <mxCell id="gTWxNoKjr0HvjYcYxz1J-24" value="" style="rounded=0;whiteSpace=wrap;html=1;fillStyle=solid;fillColor=#808080;" vertex="1" parent="gTWxNoKjr0HvjYcYxz1J-63">
          <mxGeometry width="160" height="160" as="geometry" />
        </mxCell>
        <mxCell id="gTWxNoKjr0HvjYcYxz1J-27" value="" style="line;strokeWidth=1;direction=south;html=1;perimeter=backbonePerimeter;points=[];outlineConnect=0;" vertex="1" parent="gTWxNoKjr0HvjYcYxz1J-63">
          <mxGeometry x="75" width="10" height="160" as="geometry" />
        </mxCell>
        <mxCell id="gTWxNoKjr0HvjYcYxz1J-26" value="" style="line;strokeWidth=1;html=1;" vertex="1" parent="gTWxNoKjr0HvjYcYxz1J-63">
          <mxGeometry y="75" width="160" height="10" as="geometry" />
        </mxCell>
        <UserObject label="Ping Test" placeholders="1" name="Variable" id="gTWxNoKjr0HvjYcYxz1J-90">
          <mxCell style="text;html=1;strokeColor=none;fillColor=none;align=center;verticalAlign=middle;whiteSpace=wrap;overflow=hidden;fontColor=#FFFFFF;" vertex="1" parent="gTWxNoKjr0HvjYcYxz1J-63">
            <mxGeometry y="30" width="80" height="20" as="geometry" />
          </mxCell>
        </UserObject>
        <UserObject label="Analyze Hierarchy" placeholders="1" name="Variable" id="gTWxNoKjr0HvjYcYxz1J-91">
          <mxCell style="text;html=1;strokeColor=none;fillColor=none;align=center;verticalAlign=middle;whiteSpace=wrap;overflow=hidden;fontColor=#FFFFFF;" vertex="1" parent="gTWxNoKjr0HvjYcYxz1J-63">
            <mxGeometry y="100" width="80" height="40" as="geometry" />
          </mxCell>
        </UserObject>
        <UserObject label="Store Original State Data" placeholders="1" name="Variable" id="gTWxNoKjr0HvjYcYxz1J-98">
          <mxCell style="text;html=1;strokeColor=none;fillColor=none;align=center;verticalAlign=middle;whiteSpace=wrap;overflow=hidden;fontColor=#FFFFFF;" vertex="1" parent="gTWxNoKjr0HvjYcYxz1J-63">
            <mxGeometry x="80" y="100" width="80" height="30" as="geometry" />
          </mxCell>
        </UserObject>
        <UserObject label="Create audit and rollback documents" placeholders="1" name="Variable" id="gTWxNoKjr0HvjYcYxz1J-107">
          <mxCell style="text;html=1;strokeColor=none;fillColor=none;align=center;verticalAlign=middle;whiteSpace=wrap;overflow=hidden;fontColor=#FFFFFF;" vertex="1" parent="gTWxNoKjr0HvjYcYxz1J-63">
            <mxGeometry x="80" y="15" width="80" height="50" as="geometry" />
          </mxCell>
        </UserObject>
        <mxCell id="gTWxNoKjr0HvjYcYxz1J-67" value="&lt;font style=&quot;font-size: 15px;&quot;&gt;Object Decommission App&lt;/font&gt;" style="text;strokeColor=none;fillColor=none;html=1;fontSize=24;fontStyle=1;verticalAlign=middle;align=center;fontColor=#666666;shadow=1;textShadow=1;glass=0;rounded=0;" vertex="1" parent="WIyWlLk6GJQsqaUBKTNV-1">
          <mxGeometry x="80" y="400" width="200" height="30" as="geometry" />
        </mxCell>
        <mxCell id="gTWxNoKjr0HvjYcYxz1J-68" style="edgeStyle=orthogonalEdgeStyle;rounded=0;orthogonalLoop=1;jettySize=auto;html=1;exitX=0.5;exitY=1;exitDx=0;exitDy=0;" edge="1" parent="WIyWlLk6GJQsqaUBKTNV-1" source="gTWxNoKjr0HvjYcYxz1J-67" target="gTWxNoKjr0HvjYcYxz1J-67">
          <mxGeometry relative="1" as="geometry" />
        </mxCell>
        <mxCell id="gTWxNoKjr0HvjYcYxz1J-71" style="rounded=0;orthogonalLoop=1;jettySize=auto;html=1;exitX=1;exitY=1;exitDx=0;exitDy=0;entryX=0;entryY=0.75;entryDx=0;entryDy=0;" edge="1" parent="WIyWlLk6GJQsqaUBKTNV-1" source="gTWxNoKjr0HvjYcYxz1J-69" target="gTWxNoKjr0HvjYcYxz1J-24">
          <mxGeometry relative="1" as="geometry" />
        </mxCell>
        <mxCell id="gTWxNoKjr0HvjYcYxz1J-89" value="Provide IP&lt;div&gt;location in&amp;nbsp;&lt;/div&gt;&lt;div&gt;Hierarchy&lt;/div&gt;" style="edgeLabel;html=1;align=center;verticalAlign=middle;resizable=0;points=[];labelBackgroundColor=#FFFFFF;" vertex="1" connectable="0" parent="gTWxNoKjr0HvjYcYxz1J-71">
          <mxGeometry x="-0.0147" relative="1" as="geometry">
            <mxPoint x="6" as="offset" />
          </mxGeometry>
        </mxCell>
        <mxCell id="gTWxNoKjr0HvjYcYxz1J-69" value="FireMon" style="rhombus;whiteSpace=wrap;html=1;" vertex="1" parent="WIyWlLk6GJQsqaUBKTNV-1">
          <mxGeometry x="80" y="220" width="120" height="120" as="geometry" />
        </mxCell>
        <mxCell id="gTWxNoKjr0HvjYcYxz1J-70" style="rounded=0;orthogonalLoop=1;jettySize=auto;html=1;exitX=0;exitY=0.25;exitDx=0;exitDy=0;entryX=1;entryY=0;entryDx=0;entryDy=0;" edge="1" parent="WIyWlLk6GJQsqaUBKTNV-1" source="gTWxNoKjr0HvjYcYxz1J-24" target="gTWxNoKjr0HvjYcYxz1J-69">
          <mxGeometry relative="1" as="geometry" />
        </mxCell>
        <mxCell id="gTWxNoKjr0HvjYcYxz1J-88" value="Request Rule&lt;div&gt;Hierarchy&lt;/div&gt;" style="edgeLabel;html=1;align=center;verticalAlign=middle;resizable=0;points=[];labelBackgroundColor=#FFFFFF;" vertex="1" connectable="0" parent="gTWxNoKjr0HvjYcYxz1J-70">
          <mxGeometry x="-0.1296" y="2" relative="1" as="geometry">
            <mxPoint as="offset" />
          </mxGeometry>
        </mxCell>
        <mxCell id="gTWxNoKjr0HvjYcYxz1J-92" value="" style="endArrow=classic;html=1;rounded=0;exitX=0.25;exitY=1;exitDx=0;exitDy=0;entryX=0;entryY=0;entryDx=0;entryDy=0;" edge="1" parent="WIyWlLk6GJQsqaUBKTNV-1" source="gTWxNoKjr0HvjYcYxz1J-24" target="WIyWlLk6GJQsqaUBKTNV-6">
          <mxGeometry width="50" height="50" relative="1" as="geometry">
            <mxPoint x="220" y="460" as="sourcePoint" />
            <mxPoint x="270" y="500" as="targetPoint" />
          </mxGeometry>
        </mxCell>
        <mxCell id="gTWxNoKjr0HvjYcYxz1J-93" value="For objects to be&lt;div&gt;edited request&lt;/div&gt;&lt;div&gt;original state&lt;/div&gt;" style="edgeLabel;html=1;align=center;verticalAlign=middle;resizable=0;points=[];labelBackgroundColor=#FFFFFF;" vertex="1" connectable="0" parent="gTWxNoKjr0HvjYcYxz1J-92">
          <mxGeometry x="0.0625" y="-1" relative="1" as="geometry">
            <mxPoint x="2" y="-10" as="offset" />
          </mxGeometry>
        </mxCell>
        <mxCell id="gTWxNoKjr0HvjYcYxz1J-94" value="" style="endArrow=classic;html=1;rounded=0;exitX=1;exitY=0;exitDx=0;exitDy=0;entryX=0.75;entryY=1;entryDx=0;entryDy=0;" edge="1" parent="WIyWlLk6GJQsqaUBKTNV-1" source="WIyWlLk6GJQsqaUBKTNV-6" target="gTWxNoKjr0HvjYcYxz1J-24">
          <mxGeometry width="50" height="50" relative="1" as="geometry">
            <mxPoint x="510" y="490" as="sourcePoint" />
            <mxPoint x="560" y="440" as="targetPoint" />
          </mxGeometry>
        </mxCell>
        <mxCell id="gTWxNoKjr0HvjYcYxz1J-95" value="Return&lt;div&gt;data&lt;/div&gt;" style="edgeLabel;html=1;align=center;verticalAlign=middle;resizable=0;points=[];labelBackgroundColor=#FFFFFF;" vertex="1" connectable="0" parent="gTWxNoKjr0HvjYcYxz1J-94">
          <mxGeometry x="0.0521" y="-3" relative="1" as="geometry">
            <mxPoint y="-1" as="offset" />
          </mxGeometry>
        </mxCell>
        <mxCell id="gTWxNoKjr0HvjYcYxz1J-105" style="rounded=0;orthogonalLoop=1;jettySize=auto;html=1;exitX=0;exitY=0;exitDx=0;exitDy=0;entryX=1;entryY=0.25;entryDx=0;entryDy=0;" edge="1" parent="WIyWlLk6GJQsqaUBKTNV-1" source="gTWxNoKjr0HvjYcYxz1J-99" target="gTWxNoKjr0HvjYcYxz1J-24">
          <mxGeometry relative="1" as="geometry" />
        </mxCell>
        <mxCell id="gTWxNoKjr0HvjYcYxz1J-106" value="Confirm Edits" style="edgeLabel;html=1;align=center;verticalAlign=middle;resizable=0;points=[];labelBackgroundColor=#FFFFFF;" vertex="1" connectable="0" parent="gTWxNoKjr0HvjYcYxz1J-105">
          <mxGeometry x="-0.0442" relative="1" as="geometry">
            <mxPoint as="offset" />
          </mxGeometry>
        </mxCell>
        <mxCell id="gTWxNoKjr0HvjYcYxz1J-99" value="Panorama" style="rhombus;whiteSpace=wrap;html=1;shadow=0;fontFamily=Helvetica;fontSize=12;align=center;strokeWidth=1;spacing=6;spacingTop=-4;" vertex="1" parent="WIyWlLk6GJQsqaUBKTNV-1">
          <mxGeometry x="600" y="220" width="120" height="120" as="geometry" />
        </mxCell>
        <mxCell id="gTWxNoKjr0HvjYcYxz1J-100" style="rounded=0;orthogonalLoop=1;jettySize=auto;html=1;exitX=1;exitY=0.75;exitDx=0;exitDy=0;entryX=0;entryY=1;entryDx=0;entryDy=0;" edge="1" parent="WIyWlLk6GJQsqaUBKTNV-1" source="gTWxNoKjr0HvjYcYxz1J-98" target="gTWxNoKjr0HvjYcYxz1J-99">
          <mxGeometry relative="1" as="geometry" />
        </mxCell>
        <mxCell id="gTWxNoKjr0HvjYcYxz1J-101" value="Perform Policy&amp;nbsp;&lt;div&gt;Edits&lt;/div&gt;" style="edgeLabel;html=1;align=center;verticalAlign=middle;resizable=0;points=[];labelBackgroundColor=#FFFFFF;" vertex="1" connectable="0" parent="gTWxNoKjr0HvjYcYxz1J-100">
          <mxGeometry x="0.0216" y="-1" relative="1" as="geometry">
            <mxPoint as="offset" />
          </mxGeometry>
        </mxCell>
        <mxCell id="gTWxNoKjr0HvjYcYxz1J-102" style="rounded=0;orthogonalLoop=1;jettySize=auto;html=1;exitX=0.75;exitY=0;exitDx=0;exitDy=0;entryX=0.891;entryY=0.979;entryDx=0;entryDy=0;entryPerimeter=0;" edge="1" parent="WIyWlLk6GJQsqaUBKTNV-1" source="gTWxNoKjr0HvjYcYxz1J-24" target="gTWxNoKjr0HvjYcYxz1J-39">
          <mxGeometry relative="1" as="geometry">
            <Array as="points">
              <mxPoint x="450" y="180" />
            </Array>
          </mxGeometry>
        </mxCell>
        <mxCell id="gTWxNoKjr0HvjYcYxz1J-103" value="Attach Documents &amp;amp;&lt;div&gt;Close Task&lt;/div&gt;" style="edgeLabel;html=1;align=center;verticalAlign=middle;resizable=0;points=[];labelBackgroundColor=#FFFFFF;" vertex="1" connectable="0" parent="gTWxNoKjr0HvjYcYxz1J-102">
          <mxGeometry x="-0.125" y="1" relative="1" as="geometry">
            <mxPoint as="offset" />
          </mxGeometry>
        </mxCell>
        <UserObject label="Open" placeholders="1" name="Variable" id="gTWxNoKjr0HvjYcYxz1J-112">
          <mxCell style="text;html=1;strokeColor=#82b366;fillColor=#d5e8d4;align=center;verticalAlign=middle;whiteSpace=wrap;overflow=hidden;" vertex="1" parent="WIyWlLk6GJQsqaUBKTNV-1">
            <mxGeometry x="320" y="100" width="80" height="20" as="geometry" />
          </mxCell>
        </UserObject>
        <UserObject label="Closed" placeholders="1" name="Variable" id="gTWxNoKjr0HvjYcYxz1J-113">
          <mxCell style="text;html=1;strokeColor=#b85450;fillColor=#f8cecc;align=center;verticalAlign=middle;whiteSpace=wrap;overflow=hidden;" vertex="1" parent="WIyWlLk6GJQsqaUBKTNV-1">
            <mxGeometry x="400" y="100" width="80" height="20" as="geometry" />
          </mxCell>
        </UserObject>
        <UserObject label="Firewall Clean-Up Task" placeholders="1" name="Variable" id="gTWxNoKjr0HvjYcYxz1J-114">
          <mxCell style="text;html=1;strokeColor=none;fillColor=none;align=center;verticalAlign=middle;whiteSpace=wrap;overflow=hidden;" vertex="1" parent="WIyWlLk6GJQsqaUBKTNV-1">
            <mxGeometry x="335" y="80" width="130" height="20" as="geometry" />
          </mxCell>
        </UserObject>
      </root>
    </mxGraphModel>
  </diagram>
</mxfile>
